nColumns=19
nRows=58
DataType=double
version=3
OpenSimVersion=4.1
endheader
time	ground_force_1_vx	ground_force_1_vy	ground_force_1_vz	ground_force_1_px	ground_force_1_py	ground_force_1_pz	ground_force_1_mx	ground_force_1_my	ground_force_1_mz	ground_force_2_vx	ground_force_2_vy	ground_force_2_vz	ground_force_2_px	ground_force_2_py	ground_force_2_pz	ground_force_2_mx	ground_force_2_my	ground_force_2_mz
0.77	-3.0848	11.4336	-0.15151	-0.000575273	0	-0.000259103	0	0	0	0	0	0	-0.000575273	0	-0.000259103	0	0	0
0.78	-3.35692	32.7909	-5.1572	1.13549	0	-0.314418	-0	5.25376	-0	0	0	0	-0.000575273	0	-0.000259103	0	0	0
0.79	3.29632	122.744	-11.1614	1.02769	0	-0.307505	-0	2.17538	-0	0	0	0	-0.000575273	0	-0.000259103	0	0	0
0.8	12.4736	360.614	-20.0824	1.05478	0	-0.307102	-0	0.49674	-0	0	0	0	-0.000575273	0	-0.000259103	0	0	0
0.81	0.220499	740.996	-2.53399	1.05937	0	-0.306527	-0	2.52395	-0	0	0	0	-0.000575273	0	-0.000259103	0	0	0
0.82	-59.5388	1068.09	68.4662	1.06145	0	-0.306282	-0	5.74273	-0	0	0	0	-0.000575273	0	-0.000259103	0	0	0
0.83	-150.723	1169.6	116.579	1.06185	0	-0.30625	-0	6.21106	-0	0	0	0	-0.000575273	0	-0.000259103	0	0	0
0.84	-225.396	1137.52	65.0724	1.05699	0	-0.305849	-0	2.88785	-0	0	0	0	-0.000575273	0	-0.000259103	0	0	0
0.85	-260.011	1153.53	-15.3053	1.04049	0	-0.304096	0	-1.58854	0	0	0	0	-0.000575273	0	-0.000259103	0	0	0
0.86	-253.226	1264.88	-31.045	1.01078	0	-0.30103	0	-3.92423	0	0	0	0	-0.000575273	0	-0.000259103	0	0	0
0.87	-214.991	1411.32	-10.7867	0.975927	0	-0.298257	0	-3.33846	0	0	0	0	-0.000575273	0	-0.000259103	0	0	0
0.88	-162.502	1525.7	-9.82455	0.943716	0	-0.296761	0	-1.59365	0	0	0	0	-0.000575273	0	-0.000259103	0	0	0
0.89	-117.255	1584.1	-18.0729	0.915573	0	-0.296117	0	-0.650657	0	0	0	0	-0.000575273	0	-0.000259103	0	0	0
0.9	-82.2768	1593.42	-17.5897	0.889662	0	-0.29557	0	-0.963066	0	0	0	0	-0.000575273	0	-0.000259103	0	0	0
0.91	-51.7964	1568.33	-18.0761	0.863624	0	-0.29477	0	-1.70978	0	0	0	0	-0.000575273	0	-0.000259103	0	0	0
0.92	-23.0056	1520.29	-22.3838	0.835152	0	-0.293851	0	-1.95987	0	0	0	0	-0.000575273	0	-0.000259103	0	0	0
0.93	13.8435	1456.03	-25.0937	0.802272	0	-0.293181	0	-1.45678	0	0	0	0	-0.000575273	0	-0.000259103	0	0	0
0.94	68.7879	1375.72	-22.0635	0.764384	0	-0.29301	0	-0.61789	0	0	0	0	-0.000575273	0	-0.000259103	0	0	0
0.95	138.416	1277.37	-7.53337	0.723261	0	-0.293254	0	-0.047443	0	0	0	0	-0.000575273	0	-0.000259103	0	0	0
0.96	199.028	1162.73	11.5143	0.682327	0	-0.293626	0	-0.053843	0	0	0	0	-0.000575273	0	-0.000259103	0	0	0
0.97	230.875	1023.81	25.1715	0.644341	0	-0.293851	0	-0.523234	0	0	0	0	-0.000575273	0	-0.000259103	0	0	0
0.98	235.258	848.104	34.2649	0.61003	0	-0.293705	0	-1.11693	0	0	0	0	-0.000575273	0	-0.000259103	0	0	0
0.99	214.033	645.39	42.2712	0.578672	0	-0.29293	0	-1.45484	0	0	0	0	-0.000575273	0	-0.000259103	0	0	0
1	167.375	446.259	43.8447	0.548728	0	-0.291176	0	-1.10578	0	0	0	0	-0.000575273	0	-0.000259103	0	0	0
1.01	114.509	277.964	30.0913	0.51573	0	-0.287806	-0	0.390484	-0	0	0	0	-0.000575273	0	-0.000259103	0	0	0
1.02	74.1216	151.324	8.48125	0.461744	0	-0.280342	-0	3.14408	-0	0	0	0	-0.000575273	0	-0.000259103	0	0	0
1.03	44.9229	69.9379	-3.00151	0.288811	0	-0.252221	-0	6.26754	-0	0	0	0	-0.000575273	0	-0.000259103	0	0	0
1.04	19.6165	29.9276	-1.66674	-0.000575273	0	-0.000259103	0	0	0	0	0	0	-0.000575273	0	-0.000259103	0	0	0
1.05	1.88793	13.7409	-0.605786	-0.000575273	0	-0.000259103	0	0	0	0	0	0	-0.000575273	0	-0.000259103	0	0	0
1.06	0	0	0	-0.000575273	0	-0.000259103	0	0	0	0	0	0	-0.000575273	0	-0.000259103	0	0	0
1.07	0	0	0	-0.000575273	0	-0.000259103	0	0	0	0	0	0	-0.000575273	0	-0.000259103	0	0	0
1.08	0	0	0	-0.000575273	0	-0.000259103	0	0	0	0	0	0	-0.000575273	0	-0.000259103	0	0	0
1.09	0	0	0	-0.000575273	0	-0.000259103	0	0	0	0	0	0	-0.000575273	0	-0.000259103	0	0	0
1.1	0	0	0	-0.000575273	0	-0.000259103	0	0	0	0	0	0	-0.000575273	0	-0.000259103	0	0	0
1.11	0	0	0	-0.000575273	0	-0.000259103	0	0	0	0	0	0	-0.000575273	0	-0.000259103	0	0	0
1.12	0	0	0	-0.000575273	0	-0.000259103	0	0	0	-2.02658	15.0214	-0.303259	-0.000575273	0	-0.000259103	0	0	0
1.13	0	0	0	-0.000575273	0	-0.000259103	0	0	0	0.347162	48.7173	-6.06103	1.27711	0	-0.270377	-0	1.11346	-0
1.14	0	0	0	-0.000575273	0	-0.000259103	0	0	0	10.1571	173.79	-14.2594	1.0646	0	-0.329664	0	-0.326428	0
1.15	0	0	0	-0.000575273	0	-0.000259103	0	0	0	14.4556	463.524	-20.6412	1.07961	0	-0.321049	0	-0.13297	0
1.16	0	0	0	-0.000575273	0	-0.000259103	0	0	0	-21.0592	847.252	-11.0577	1.08342	0	-0.317546	-0	0.452729	-0
1.17	0	0	0	-0.000575273	0	-0.000259103	0	0	0	-101.84	1095.14	-0.0134845	1.08401	0	-0.316253	0	-0.079872	0
1.18	0	0	0	-0.000575273	0	-0.000259103	0	0	0	-182.136	1119.72	-31.2309	1.07991	0	-0.316966	0	-1.69303	0
1.19	0	0	0	-0.000575273	0	-0.000259103	0	0	0	-224.543	1080.53	-74.496	1.06613	0	-0.319446	0	-2.90236	0
1.2	0	0	0	-0.000575273	0	-0.000259103	0	0	0	-231.904	1128.42	-49.3799	1.0392	0	-0.322423	0	-2.58108	0
1.21	0	0	0	-0.000575273	0	-0.000259103	0	0	0	-215.222	1253.7	22.2295	1.00451	0	-0.32442	0	-1.19212	0
1.22	0	0	0	-0.000575273	0	-0.000259103	0	0	0	-180.69	1372.36	39.248	0.971188	0	-0.325409	-0	0.004803	-0
1.23	0	0	0	-0.000575273	0	-0.000259103	0	0	0	-140.084	1443.68	4.06734	0.942155	0	-0.32607	-0	0.440016	-0
1.24	0	0	0	-0.000575273	0	-0.000259103	0	0	0	-106.503	1477.89	-5.21345	0.915558	0	-0.326757	-0	0.499784	-0
1.25	0	0	0	-0.000575273	0	-0.000259103	0	0	0	-75.5573	1486.32	12.9063	0.889147	0	-0.327661	-0	0.705983	-0
1.26	0	0	0	-0.000575273	0	-0.000259103	0	0	0	-43.1818	1470.32	17.2208	0.861371	0	-0.328908	-0	1.14218	-0
1.27	0	0	0	-0.000575273	0	-0.000259103	0	0	0	-10.2029	1433.49	13.4506	0.830937	0	-0.330307	-0	1.62601	-0
1.28	0	0	0	-0.000575273	0	-0.000259103	0	0	0	31.5532	1381.45	13.3424	0.796803	0	-0.331344	-0	2.09368	-0
1.29	0	0	0	-0.000575273	0	-0.000259103	0	0	0	89.1654	1314.6	8.41657	0.759027	0	-0.33157	-0	2.64986	-0
1.3	0	0	0	-0.000575273	0	-0.000259103	0	0	0	152.314	1228.78	-3.64207	0.719296	0	-0.330951	-0	3.31196	-0
1.31	0	0	0	-0.000575273	0	-0.000259103	0	0	0	200.916	1118.59	-19.5275	0.679974	0	-0.329844	-0	3.84782	-0
1.32	0	0	0	-0.000575273	0	-0.000259103	0	0	0	225.326	974.175	-35.104	0.642496	0	-0.328745	-0	3.96041	-0
1.33	0	0	0	-0.000575273	0	-0.000259103	0	0	0	224.447	791.012	-42.6871	0.606786	0	-0.328096	-0	3.61824	-0
1.34	0	0	0	-0.000575273	0	-0.000259103	0	0	0	194.516	585.231	-39.3631	0.571825	0	-0.328259	-0	3.07907	-0
